<svg width="103" height="40" viewBox="0 0 103 40" fill="none" xmlns="http://www.w3.org/2000/svg">
<path d="M93.1599 39.5559C97.2625 38.4862 100.317 36.2867 101.806 33.3491C102.566 31.8727 102.839 30.8784 102.961 29.2062C103.234 25.696 102.079 22.6528 99.6481 20.363C97.7943 18.6305 95.8646 17.7115 90.8654 16.1899C84.1949 14.1561 83.2984 13.5987 83.4503 11.5649C83.5567 10.0584 84.7115 8.8231 86.4437 8.31089C87.5834 7.97945 89.6195 8.09997 90.5768 8.55193C92.0203 9.22986 92.9624 10.5706 93.0991 12.1826C93.1447 12.6798 93.2511 13.0865 93.3118 13.0865C93.8589 13.0865 102.034 12.4688 102.079 12.4237C102.201 12.2881 101.775 9.57635 101.487 8.61218C100.317 4.86098 97.3841 1.96848 93.4942 0.733146C91.4125 0.0702824 90.2273 -0.0653 87.2947 0.0250905C85.1218 0.0853508 84.4836 0.160673 83.2832 0.492104C78.7247 1.75757 75.473 4.61994 74.2726 8.41634C73.9839 9.35038 73.9231 9.86259 73.9231 11.4294C73.9383 14.3369 74.5461 16.1146 76.172 18.0731C77.8738 20.1068 80.229 21.4778 84.1797 22.7131C90.8655 24.8071 92.2938 25.4097 93.0231 26.404C93.3726 26.8861 93.4486 27.1422 93.4486 27.8804C93.4486 30.321 91.3669 31.9179 88.1456 31.9179C84.6963 31.9179 82.9641 30.6072 82.4931 27.6544C82.4019 27.1422 82.3107 26.7054 82.2803 26.6752C82.2348 26.615 76.5367 26.9916 74.4702 27.2025L73.4977 27.2929L73.6041 28.4529C73.9839 33.0026 76.4607 36.6483 80.457 38.5465C83.0249 39.7517 84.7115 40.053 88.6622 39.9928C91.3365 39.9476 91.8835 39.9024 93.1599 39.5559ZM0 39.7517H9.26888V26.63L11.6393 26.6752L13.9945 26.7204L17.5957 33.2285L21.1969 39.7517H31.3167L31.1343 39.4203C30.9216 39.0286 23.2178 25.922 22.7771 25.1988L22.4884 24.7318L23.5977 24.1443C25.7857 22.9692 28.2473 20.137 29.2806 17.5759C30.253 15.1956 30.3442 11.5649 29.5085 9.06414C28.7032 6.71399 27.5483 5.01163 25.6186 3.41473C24.3878 2.39031 22.0022 1.17003 20.2852 0.703017C19.1 0.371585 18.8569 0.356521 9.5424 0.311326L0 0.266132V39.7517ZM44.0348 0.281197H36.1638V9.00388L44.0348 9.04908C52.7263 9.10933 52.4072 9.0792 54.5497 10.1488C57.2544 11.5047 58.941 13.4179 59.9742 16.3255C60.3693 17.4554 60.3997 17.6814 60.3997 20.0165C60.3997 22.3515 60.3693 22.5775 59.9742 23.7074C58.941 26.615 57.2544 28.5282 54.5497 29.8841C52.5743 30.8633 52.4224 30.8934 46.3444 31.014C43.2902 31.0893 38.7014 31.1495 36.1335 31.1495C33.5503 31.1646 31.4534 31.2098 31.4534 31.255C31.4534 31.3002 32.5323 33.2285 33.839 35.5485L36.2246 39.7517H44.0652C50.4622 39.7517 52.1337 39.7065 53.2429 39.5107C57.3151 38.8026 60.9011 36.9345 63.8945 33.9667C66.736 31.1345 68.6201 27.6545 69.3951 23.8279C69.7598 22.005 69.7598 18.0279 69.3951 16.205C67.9819 9.16959 62.6637 3.27915 55.8108 1.12484C53.2581 0.341458 52.5287 0.281197 44.0348 0.281197ZM13.569 9.04908C17.5653 9.09427 17.8996 9.10934 18.553 9.41064C20.2852 10.2091 21.1817 11.5499 21.1817 13.3878C21.1817 14.7286 20.8474 15.5723 19.9813 16.4611C18.8113 17.6211 18.5682 17.6814 13.645 17.7266L9.26888 17.7718V9.00388L13.569 9.04908Z" fill="#F2F2F2"/>
</svg>
